<?xml version="1.0" encoding="utf-8"?>
<svg version="1.1" id="layer1" xmlns="http://www.w3.org/2000/svg" xmlns:xlink="http://www.w3.org/1999/xlink" x="0px"
	 y="0px" viewBox="0 0 220.7 200.3" style="enable-background:new 0 0 220.7 200.3;" xml:space="preserve">
<style type="text/css">
</style>
<g>
	<path fill="#2D0D49" d="M110.3,14.9C63.2,14.9,25,53.1,25,100.2c0,47.1,38.2,85.3,85.3,85.3c47.1,0,85.3-38.2,85.3-85.3
		C195.7,53.1,157.5,14.9,110.3,14.9z M113.4,124.8h-8.9V86.5h-0.3l-12.4,38.4h-7.3L72.3,86.5h-0.2v38.4h-7.8V75.4h12.5l12,37.2H89
		l12-37.2h12.4V124.8z M145.2,105.7v19.2h-8.9v-19.2l-16-30.2h9.4l11.3,22.2h0.2l11.3-22.2h8.4L145.2,105.7z"/>
</g>
</svg>
