<?xml version="1.0" encoding="utf-8"?>
<!-- Generator: Adobe Illustrator 27.2.0, SVG Export Plug-In . SVG Version: 6.00 Build 0)  -->
<svg version="1.1" id="레이어_1" xmlns="http://www.w3.org/2000/svg" xmlns:xlink="http://www.w3.org/1999/xlink" x="0px"
	 y="0px" viewBox="0 0 124.4 127.6" style="enable-background:new 0 0 124.4 127.6;" xml:space="preserve">
<style type="text/css">
	.st0{fill:#2D0D49;}
</style>
<g>
	<path class="st0" d="M69.7,23c0.2,0.2,0.3,0.4,0.4,0.6s0.2,0.4,0.4,0.6c0.4,0.4,0.5,0.9,0.4,1.5c-0.2,0.6-0.5,0.9-0.9,0.8
		c-1.3,0.2-2.6,0.3-4,0.2c-1.4-0.1-2.8-0.1-4.1-0.2c-1.4,0-2.7,0.1-4,0.3c-1.3,0.2-2.4,0.7-3.3,1.5c-2.1,1.6-4.1,3.7-6.1,6.2
		c-2,2.5-3.7,5.4-5.3,8.6c-1.6,3.2-2.8,6.8-3.7,10.6c-0.9,3.9-1.4,8-1.3,12.3c0.2,5.9,1.5,11,3.9,15.3c2.4,4.3,5.5,7.5,9.2,9.6
		c3.7,2.1,7.9,3.1,12.5,2.9c4.6-0.2,9.3-1.8,14.1-4.8c3.5-2.3,6.6-5,9.3-8.2c2.7-3.2,5.2-6.4,7.4-9.5c-0.2,1.2-0.5,2.2-0.7,3.1
		c-0.2,0.9-0.6,2-1.2,3.3c-0.4,0.8-0.7,1.8-0.9,3.1c-0.2,1.2-0.5,2.3-0.9,3.1c-2.4,6.1-6.3,11.2-11.4,15.5c-1.1,1-2.2,1.7-3.1,2.1
		c-0.9,0.4-2,1-3.2,1.7c-1.9,0.7-3.8,1.5-5.6,2.3c-1.9,0.8-3.8,1.3-5.8,1.4c-5.9,0.2-11.6-1.6-17.2-5.3c-2.5-1.6-4.9-3.9-7.3-6.7
		c-2.4-2.8-4.4-6-6-9.5c-1.7-3.5-2.9-7.1-3.8-10.9c-0.9-3.7-1.1-7.4-0.7-11.1c0.6-8.1,2.1-15.7,4.5-22.8c2.4-7.1,6.3-12.9,11.6-17.4
		c3.6-3.1,8.5-5.1,14.8-6c1.6,0.1,3.7,0.6,6.1,1.7c0.8,0.4,1.6,0.7,2.5,1.1c0.8,0.4,1.7,1,2.7,1.8c0.2,0.2,0.3,0.4,0.4,0.7
		C69.3,22.6,69.5,22.8,69.7,23z"/>
</g>
</svg>
